<svg width="118" height="118" viewBox="0 0 118 118" fill="none" xmlns="http://www.w3.org/2000/svg">
<rect width="118" height="118" rx="8" fill="#111111"/>
<path d="M23.4893 50.3984L28.4697 67H31.4746L35.2432 54.9141L38.9951 67H42L47.0469 50.3984H43.4775L40.4062 62.0195L36.7871 50.3984H33.749L30.1299 62.0195L27.042 50.3984H23.4893ZM47.2295 50.3984L52.21 67H55.2148L58.9834 54.9141L62.7354 67H65.7402L70.7871 50.3984H67.2178L64.1465 62.0195L60.5273 50.3984H57.4893L53.8701 62.0195L50.7822 50.3984H47.2295ZM70.9697 50.3984L75.9502 67H78.9551L82.7236 54.9141L86.4756 67H89.4805L94.5273 50.3984H90.958L87.8867 62.0195L84.2676 50.3984H81.2295L77.6104 62.0195L74.5225 50.3984H70.9697Z" fill="white"/>
</svg>
